<svg width="20" height="20" viewBox="0 0 20 20" fill="none" xmlns="http://www.w3.org/2000/svg">
<path d="M10 12C7.79086 12 6 10.2091 6 8C6 5.79086 7.79086 4 10 4C12.2091 4 14 5.79086 14 8C14 10.2091 12.2091 12 10 12Z" fill="white"/>
<path fill-rule="evenodd" clip-rule="evenodd" d="M10 20C15.5229 20 20 15.5228 20 10C20 4.47716 15.5229 0 10 0C4.47716 0 0 4.47716 0 10C0 15.5228 4.47716 20 10 20ZM15 16.2454C16.8289 14.7792 18 12.5264 18 10C18 5.58173 14.4183 2 10 2C5.58172 2 2 5.58173 2 10C2 12.5264 3.17108 14.7793 5 16.2454V15C5 13.3431 6.34315 12 8 12H10H12C13.6569 12 15 13.3431 15 15V16.2454Z" fill="white"/>
</svg>
