<svg width="20" height="20" viewBox="0 0 20 20" fill="none" xmlns="http://www.w3.org/2000/svg">
<path fill-rule="evenodd" clip-rule="evenodd" d="M18.392 0H19.598C19.82 0 20 0.179086 20 0.4V2.4C20 2.62091 19.82 2.8 19.598 2.8H18.392V2.21235C18.2857 2.21865 18.2041 2.22807 18.1373 2.24212C18.1194 2.24587 18.1059 2.24938 18.0961 2.25229C18.0441 2.35375 17.9828 2.57659 17.8993 3.12338C17.872 3.30215 17.8407 3.52566 17.8047 3.78351C17.7442 4.21567 17.6702 4.7451 17.5782 5.32477C17.4378 6.2097 17.328 6.84987 17.2405 7.31096L16.5067 14.2105C16.3985 15.2279 15.5361 16 14.5079 16H14.0009C14.0454 16.1251 14.0696 16.2597 14.0696 16.4C14.0696 16.5254 14.0502 16.6464 14.0143 16.76C14.5338 17.1216 14.8735 17.7213 14.8735 18.4H14.4715C14.4715 19.2837 13.7516 20 12.8636 20C11.9755 20 11.2556 19.2837 11.2556 18.4H10.8537C10.8537 17.7213 11.1934 17.1216 11.7128 16.76C11.677 16.6464 11.6576 16.5254 11.6576 16.4C11.6576 16.2597 11.6818 16.1251 11.7263 16H5.15721C5.20165 16.1251 5.22583 16.2597 5.22583 16.4C5.22583 16.5254 5.20649 16.6464 5.17062 16.76C5.69008 17.1216 6.02981 17.7213 6.02981 18.4H5.62782C5.62782 19.2837 4.90792 20 4.01987 20C3.13182 20 2.41192 19.2837 2.41192 18.4H2.00993C2.00993 17.7213 2.34966 17.1216 2.86912 16.76C2.83325 16.6464 2.81391 16.5254 2.81391 16.4C2.81391 16.2597 2.83809 16.1251 2.88253 16H2.71195C1.66356 16 0.791255 15.1982 0.70831 14.1582L0.00642693 5.35823C-0.0863565 4.19494 0.83732 3.2 2.01006 3.2H15.4438C15.7275 3.2 15.9964 3.25815 16.2398 3.36267C16.2632 3.19637 16.2858 3.03832 16.3096 2.88287C16.388 2.3695 16.4769 1.87817 16.6756 1.5024C16.7874 1.29103 16.9413 1.09818 17.1563 0.947037C17.3661 0.799539 17.592 0.721403 17.8051 0.676623C17.9811 0.639653 18.1795 0.62047 18.392 0.610537V0ZM15.6484 7.07685C16.0444 6.84275 15.8435 5.24209 15.8435 5.24209C15.8687 5.00584 15.6159 4.6 15.3771 4.6C15.3771 4.6 13.4886 4.36835 13.0856 4.8C12.6827 5.23164 12.3205 7 12.8439 7.2C13.3672 7.4 14.8152 7.31096 14.8152 7.31096C14.8152 7.31096 15.2525 7.31096 15.6484 7.07685ZM2.01006 4.8C1.77551 4.8 1.59078 4.99899 1.60934 5.23164C1.60934 5.23164 1.35158 6.8 1.76633 7.2C2.18108 7.6 5.02484 7.6 5.3305 7.2C5.63615 6.8 5.59849 5 5.15184 4.8C4.70518 4.6 2.01006 4.8 2.01006 4.8ZM2.05347 10.8C1.69501 10.4 1.60934 9.2 1.89395 8.8C2.17856 8.4 5.18161 8.494 5.4496 8.8C5.7176 9.106 5.97114 10.4 5.59849 10.8C5.22584 11.2 2.41193 11.2 2.05347 10.8ZM2.05347 13.8C2.05347 13.4 1.89395 12.8 2.18108 12.4C2.46821 12 5.40538 12 5.7176 12.4C6.02981 12.8 5.7176 14.2 5.4496 14.4C5.03273 14.7111 3.21591 14.6 2.81392 14.6C2.41193 14.6 2.05347 14.2 2.05347 13.8ZM10.5025 14.4C10.0498 14.6418 7.94037 14.6 7.47884 14.4C7.0173 14.2 6.94285 12.8 7.32995 12.4C7.71705 12 10.3414 12 10.704 12.4C11.0667 12.8 10.9553 14.1582 10.5025 14.4ZM14.4716 14.6C14.0696 14.8 12.4812 14.8 12.1186 14.4C11.7559 14 11.9602 12.8 12.32 12.4C12.6798 12 14.9122 12 15.0823 12.4C15.2525 12.8 15.0745 14 15.0745 14C15.0529 14.2035 14.8735 14.4 14.4716 14.6ZM15.4652 8.8C15.6484 9.2 15.7308 10.6 15.2525 10.8C14.7742 11 12.8439 11 12.4812 10.8C12.1186 10.6 12.1612 9.4 12.6827 8.8C13.2041 8.2 15.2819 8.4 15.4652 8.8ZM6.76419 4.8C7.09658 4.4 11.2816 4.35791 11.4696 4.8C11.6576 5.24209 11.602 6.8 11.2278 7.2C10.8537 7.6 7.32995 7.48696 6.94285 7.2C6.55575 6.91304 6.4318 5.2 6.76419 4.8ZM7.06196 8.8C6.94285 9.2 6.68231 10.2 7.21084 10.8C7.73938 11.4 10.5025 11.2 10.8652 10.8C11.2278 10.4 11.4566 9.4 11.0667 8.8C10.6767 8.2 7.18107 8.4 7.06196 8.8ZM4.01987 19.2C3.57585 19.2 3.21589 18.8418 3.21589 18.4H4.82384C4.82384 18.8418 4.46389 19.2 4.01987 19.2ZM12.8636 19.2C12.4196 19.2 12.0596 18.8418 12.0596 18.4H13.6676C13.6676 18.8418 13.3076 19.2 12.8636 19.2Z" fill="current"/>
</svg>
