<svg width="24" height="24" viewBox="0 0 24 24" fill="none" xmlns="http://www.w3.org/2000/svg">
<g clip-path="url(#clip0_608_54)">
<path d="M20.48 3.512C19.3667 2.39623 18.0439 1.51142 16.5876 0.908375C15.1313 0.305335 13.5702 -0.00404852 11.994 -0.00200409C5.366 -0.00200409 -0.00700378 5.371 -0.00700378 11.999C-0.00700378 15.313 1.337 18.314 3.509 20.486C4.62233 21.6018 5.94513 22.4866 7.40142 23.0896C8.85771 23.6927 10.4188 24.002 11.995 24C18.623 24 23.996 18.627 23.996 11.999C23.996 8.685 22.652 5.684 20.48 3.512V3.512ZM18.938 18.939C18.0272 19.8521 16.945 20.5762 15.7535 21.0698C14.562 21.5634 13.2847 21.8166 11.995 21.815C6.572 21.815 2.176 17.419 2.176 11.996C2.17438 10.7063 2.42763 9.42902 2.92118 8.23751C3.41474 7.04601 4.13888 5.96377 5.052 5.053C5.96255 4.13987 7.04461 3.41571 8.23596 2.92215C9.4273 2.42858 10.7045 2.17535 11.994 2.177C17.416 2.177 21.812 6.573 21.812 11.995C21.8137 13.2845 21.5605 14.5617 21.0669 15.7531C20.5734 16.9444 19.8492 18.0265 18.936 18.937L18.938 18.939Z" fill="current"/>
<path d="M13.537 12L17.392 8.14499C17.5822 7.93772 17.6849 7.66501 17.6788 7.38379C17.6727 7.10257 17.5582 6.83457 17.3593 6.63574C17.1603 6.4369 16.8922 6.3226 16.611 6.31668C16.3298 6.31077 16.0571 6.4137 15.85 6.60399L15.851 6.60299L11.996 10.458L8.14099 6.60299C7.93372 6.41283 7.66101 6.31008 7.37979 6.31617C7.09857 6.32227 6.83057 6.43675 6.63174 6.63572C6.4329 6.83468 6.3186 7.10275 6.31268 7.38398C6.30677 7.6652 6.4097 7.93784 6.59999 8.14499L6.59899 8.14399L10.454 11.999L6.59899 15.854C6.49053 15.9535 6.40332 16.0739 6.34263 16.208C6.28193 16.3421 6.24899 16.4871 6.2458 16.6343C6.24261 16.7814 6.26923 16.9277 6.32406 17.0643C6.37889 17.2009 6.46079 17.325 6.56484 17.4291C6.66889 17.5332 6.79293 17.6152 6.92949 17.6701C7.06606 17.7251 7.21233 17.7518 7.35949 17.7487C7.50665 17.7456 7.65166 17.7127 7.7858 17.6521C7.91993 17.5915 8.04041 17.5044 8.13999 17.396L8.14099 17.395L11.996 13.54L15.851 17.395C15.9505 17.5035 16.0709 17.5907 16.205 17.6514C16.3391 17.7121 16.4841 17.745 16.6313 17.7482C16.7784 17.7514 16.9247 17.7248 17.0613 17.6699C17.1979 17.6151 17.322 17.5332 17.4261 17.4291C17.5302 17.3251 17.6122 17.2011 17.6671 17.0645C17.7221 16.9279 17.7488 16.7817 17.7457 16.6345C17.7426 16.4873 17.7097 16.3423 17.6491 16.2082C17.5885 16.0741 17.5014 15.9536 17.393 15.854L17.392 15.853L13.537 12Z" fill="current"/>
</g>
<defs>
<clipPath id="clip0_608_54">
<rect width="24" height="24" fill="none"/>
</clipPath>
</defs>
</svg>
