<svg width="20" height="20" viewBox="0 0 20 20" fill="none" xmlns="http://www.w3.org/2000/svg">
<path fill-rule="evenodd" clip-rule="evenodd" d="M20 8C20 12.4183 16.4183 16 12 16C10.1296 16 8.40915 15.3581 7.04686 14.2827L3.06464 19.3434C2.64566 19.8759 1.9422 20.0956 1.29468 19.8961C0.731813 19.7228 0.305254 19.2608 0.1774 18.6859L0.167375 18.6408C0.0278489 18.0135 0.250108 17.3608 0.74344 16.9489L5.64366 12.8584C4.61261 11.5114 4 9.82726 4 8C4 3.58173 7.58173 0 12 0C16.4183 0 20 3.58173 20 8ZM17 8C17 10.7614 14.7614 13 12 13C9.23857 13 7 10.7614 7 8C7 5.23857 9.23857 3 12 3C14.7614 3 17 5.23857 17 8Z" fill="white"/>
</svg>
